<?xml version="1.0" encoding="iso-8859-1"?>
<!-- Generator: Adobe Illustrator 19.0.0, SVG Export Plug-In . SVG Version: 6.00 Build 0)  -->
<svg version="1.1" id="Capa_1" xmlns="http://www.w3.org/2000/svg" xmlns:xlink="http://www.w3.org/1999/xlink" x="0px" y="0px"
	 viewBox="0 0 512 512" style="enable-background:new 0 0 512 512;" xml:space="preserve">
<g>
	<path style="fill:#B78046;" d="M431.814,144.826c-0.012-0.18-0.025-0.36-0.039-0.54c-2.208-29.127-26.145-52.262-55.329-53.515
		c-33.229-1.427-60.616,25.09-60.616,58.003c0,0.041,0,0.081,0,0.122c0.014,6.918-3.458,13.322-9.288,17.046
		c-17.408,11.117-28.657,31.021-27.473,53.467c1.603,30.385,26.296,54.899,56.69,56.301c7.987,0.369,15.646-0.839,22.696-3.336
		c9.969-3.531,20.897-3.53,30.866,0c7.048,2.496,14.706,3.703,22.691,3.335c30.394-1.4,55.089-25.912,56.693-56.297
		c1.114-21.096-8.753-39.946-24.395-51.368C436.871,162.611,432.428,154.021,431.814,144.826z"/>
	<circle style="fill:#B78046;" cx="264.639" cy="109.694" r="28.639"/>
	<circle style="fill:#B78046;" cx="322.728" cy="34.751" r="34.751"/>
	<circle style="fill:#B78046;" cx="483.137" cy="109.694" r="28.639"/>
	<circle style="fill:#B78046;" cx="425.048" cy="34.751" r="34.751"/>
</g>
<g>
	<path style="fill:#A86D38;" d="M299.657,219.409c-1.184-22.446,10.065-42.35,27.473-53.467c5.83-3.724,9.303-10.128,9.288-17.046
		c0-0.041,0-0.081,0-0.122c0-28.555,20.619-52.281,47.777-57.136c-2.533-0.457-5.119-0.753-7.748-0.866
		c-33.229-1.427-60.617,25.09-60.617,58.003c0,0.041,0,0.081,0,0.122c0.014,6.918-3.458,13.322-9.288,17.046
		c-17.408,11.117-28.657,31.021-27.473,53.467c1.603,30.385,26.296,54.899,56.69,56.302c4.491,0.207,8.872-0.101,13.107-0.839
		C321.993,270.159,301.126,247.257,299.657,219.409z"/>
	<path style="fill:#A86D38;" d="M409.909,272.375c-8.282-2.932-17.222-3.421-25.727-1.482c1.734,0.396,3.452,0.884,5.141,1.482
		c7.049,2.496,14.705,3.703,22.691,3.335c2.54-0.117,5.035-0.41,7.484-0.839C416.203,274.297,412.995,273.468,409.909,272.375z"/>
	<path style="fill:#A86D38;" d="M256.589,109.696c0-12.187,7.616-22.589,18.346-26.725c-3.195-1.232-6.664-1.913-10.293-1.913
		c-15.817,0-28.639,12.822-28.639,28.639s12.822,28.639,28.639,28.639c3.63,0,7.098-0.682,10.293-1.913
		C264.204,132.285,256.589,121.883,256.589,109.696z"/>
	<path style="fill:#A86D38;" d="M308.562,34.751c0-15.608,10.291-28.813,24.458-33.2C329.768,0.544,326.311,0,322.727,0
		c-19.192,0-34.751,15.558-34.751,34.751s15.558,34.751,34.751,34.751c3.584,0,7.041-0.544,10.293-1.551
		C318.853,63.563,308.562,50.36,308.562,34.751z"/>
	<path style="fill:#A86D38;" d="M475.085,109.696c0-12.187,7.616-22.589,18.346-26.725c-3.195-1.232-6.664-1.913-10.293-1.913
		c-15.817,0-28.639,12.822-28.639,28.639s12.822,28.639,28.639,28.639c3.63,0,7.098-0.682,10.293-1.913
		C482.702,132.285,475.085,121.883,475.085,109.696z"/>
	<path style="fill:#A86D38;" d="M410.887,34.751c0-15.608,10.291-28.813,24.458-33.2C432.091,0.544,428.634,0,425.051,0
		c-19.192,0-34.751,15.558-34.751,34.751s15.558,34.751,34.751,34.751c3.584,0,7.041-0.544,10.293-1.551
		C421.178,63.563,410.887,50.36,410.887,34.751z"/>
</g>
<g>
	<path style="fill:#B78046;" d="M196.038,381.051c-0.012-0.18-0.025-0.36-0.039-0.54c-2.208-29.127-26.145-52.262-55.329-53.515
		c-33.229-1.427-60.616,25.09-60.616,58.003c0,0.041,0,0.081,0,0.122c0.014,6.918-3.458,13.322-9.288,17.046
		c-17.408,11.117-28.657,31.021-27.473,53.467c1.603,30.385,26.296,54.899,56.69,56.301c7.987,0.369,15.646-0.839,22.696-3.336
		c9.969-3.531,20.897-3.53,30.866,0c7.048,2.496,14.706,3.703,22.691,3.335c30.394-1.4,55.089-25.912,56.693-56.297
		c1.114-21.096-8.753-39.946-24.395-51.368C201.093,398.835,196.651,390.246,196.038,381.051z"/>
	<circle style="fill:#B78046;" cx="28.863" cy="345.917" r="28.639"/>
	<circle style="fill:#B78046;" cx="86.954" cy="270.973" r="34.751"/>
	<circle style="fill:#B78046;" cx="247.364" cy="345.917" r="28.639"/>
	<circle style="fill:#B78046;" cx="189.274" cy="270.973" r="34.751"/>
</g>
<g>
	<path style="fill:#A86D38;" d="M63.879,455.633c-1.184-22.446,10.065-42.35,27.473-53.467c5.83-3.724,9.303-10.128,9.288-17.046
		c0-0.041,0-0.081,0-0.122c0-28.555,20.619-52.281,47.777-57.136c-2.533-0.457-5.119-0.753-7.748-0.866
		c-33.229-1.427-60.617,25.09-60.617,58.003c0,0.041,0,0.081,0,0.122c0.014,6.918-3.458,13.322-9.288,17.046
		c-17.408,11.117-28.657,31.021-27.473,53.467c1.603,30.385,26.296,54.899,56.69,56.301c4.491,0.207,8.872-0.101,13.107-0.839
		C86.217,506.383,65.348,483.481,63.879,455.633z"/>
	<path style="fill:#A86D38;" d="M174.132,508.599c-8.282-2.932-17.222-3.421-25.727-1.482c1.734,0.396,3.452,0.884,5.141,1.482
		c7.049,2.496,14.705,3.703,22.691,3.335c2.54-0.117,5.035-0.41,7.484-0.839C180.425,510.521,177.217,509.692,174.132,508.599z"/>
	<path style="fill:#A86D38;" d="M20.811,345.92c0-12.187,7.616-22.589,18.346-26.725c-3.195-1.232-6.664-1.913-10.293-1.913
		c-15.817,0-28.639,12.822-28.639,28.639c0,15.817,12.822,28.639,28.639,28.639c3.63,0,7.098-0.682,10.293-1.913
		C28.427,368.511,20.811,358.108,20.811,345.92z"/>
	<path style="fill:#A86D38;" d="M72.785,270.976c0-15.608,10.291-28.813,24.458-33.2c-3.252-1.007-6.709-1.551-10.293-1.551
		c-19.192,0-34.751,15.558-34.751,34.751c0,19.192,15.558,34.751,34.751,34.751c3.584,0,7.041-0.544,10.293-1.551
		C83.076,299.789,72.785,286.584,72.785,270.976z"/>
	<path style="fill:#A86D38;" d="M239.308,345.92c0-12.187,7.616-22.589,18.346-26.725c-3.195-1.232-6.664-1.913-10.293-1.913
		c-15.817,0-28.639,12.822-28.639,28.639c0,15.817,12.822,28.639,28.639,28.639c3.63,0,7.098-0.682,10.293-1.913
		C246.924,368.511,239.308,358.108,239.308,345.92z"/>
	<path style="fill:#A86D38;" d="M175.109,270.976c0-15.608,10.291-28.813,24.458-33.2c-3.253-1.007-6.709-1.551-10.293-1.551
		c-19.192,0-34.751,15.558-34.751,34.751c0,19.192,15.558,34.751,34.751,34.751c3.584,0,7.041-0.544,10.293-1.551
		C185.4,299.789,175.109,286.584,175.109,270.976z"/>
</g>
<g>
</g>
<g>
</g>
<g>
</g>
<g>
</g>
<g>
</g>
<g>
</g>
<g>
</g>
<g>
</g>
<g>
</g>
<g>
</g>
<g>
</g>
<g>
</g>
<g>
</g>
<g>
</g>
<g>
</g>
</svg>
