<svg xmlns="http://www.w3.org/2000/svg" viewBox="0 0 342.77 507"><defs><style>.cls-1{fill:#282828;}.cls-2{fill:#fff;}</style></defs><title>資產 2</title><g id="圖層_2" data-name="圖層 2"><g id="Layer_1" data-name="Layer 1"><path class="cls-1" d="M1.59,467.9a3.65,3.65,0,0,1-1-5,3.65,3.65,0,0,1,5-1q1.5,1.05,3.3,2.1c8.2,5,15.9,7.5,22.2,7.5,5.7,0,10.4-2.2,13.3-6.5h0c.2-.3.4-.5.4-.7a19.49,19.49,0,0,0,1.9-4.2,12.69,12.69,0,0,0-.5-8.6c-1.2-2.9-3.7-5.6-7.5-7.9h0a40.49,40.49,0,0,0-9.5-4c-9.7-2.7-16.8-6.6-20.7-11.7-4.2-5.7-4.5-12.5,0-20.8,3-5.5,9.1-8.9,16.9-9.5,6.7-.5,14.8,1.1,23,5.3a3.58,3.58,0,1,1-3.2,6.4c-7-3.6-13.7-4.9-19.2-4.5-5.3.4-9.4,2.5-11.1,5.8-3,5.5-3,9.8-.5,13.1,2.8,3.8,8.7,6.8,16.8,9.1a42.91,42.91,0,0,1,11.2,4.8h0a24.8,24.8,0,0,1,10.3,11.2,19.37,19.37,0,0,1,.8,13.4,24.64,24.64,0,0,1-2.7,6,6.42,6.42,0,0,0-.6,1h0c-4.3,6.4-11.1,9.6-19.3,9.6-7.6,0-16.5-2.8-25.9-8.5A38.6,38.6,0,0,0,1.59,467.9Z"/><path class="cls-1" d="M65.49,401a3.61,3.61,0,0,1,7.2,0v74.3a3.61,3.61,0,0,1-7.2,0Z"/><path class="cls-1" d="M72.89,447.3a3.62,3.62,0,0,1-5.6-4.6c5.5-6.7,11.7-10.8,17.8-12.6a22.92,22.92,0,0,1,12.4-.4,17.39,17.39,0,0,1,9.7,6.7,20.51,20.51,0,0,1,3.6,12.2v26.6a3.6,3.6,0,0,1-7.2,0V448.6a13.89,13.89,0,0,0-2.2-8.1,10.51,10.51,0,0,0-5.7-3.9,15.53,15.53,0,0,0-8.5.3C82.39,438.4,77.39,441.8,72.89,447.3Z"/><path class="cls-1" d="M146.09,429a24.78,24.78,0,0,1,17.6,7.3h0a24.89,24.89,0,1,1-35.2,35.2h0a24.87,24.87,0,0,1,0-35.2h0a25,25,0,0,1,17.6-7.3Zm12.6,12.3a17.87,17.87,0,0,0-25.2,0h0a17.87,17.87,0,0,0,0,25.2h0a17.82,17.82,0,0,0,25.2-25.2Z"/><path class="cls-1" d="M181.19,432.6a3.6,3.6,0,1,1,7.2,0v4.5a6,6,0,0,1,.8-.8h0a24.87,24.87,0,0,1,35.2,0h0a24.89,24.89,0,1,1-35.2,35.2h0a6,6,0,0,0-.8-.8v32.7a3.6,3.6,0,1,1-7.2,0V432.6Zm38.1,8.7a17.87,17.87,0,0,0-25.2,0h0a17.87,17.87,0,0,0,0,25.2h0a17.82,17.82,0,0,0,25.2-25.2Z"/><path class="cls-1" d="M265.49,429a21.9,21.9,0,0,1,15.8,6.6,24.26,24.26,0,0,1,6,10.4c3.1,10.1-2.8,9.7-4.6,9.7h-33.1a31.89,31.89,0,0,0,1.6,6.6,15.23,15.23,0,0,0,5.6,7,17.27,17.27,0,0,0,9.4,2.4,36.58,36.58,0,0,0,13.9-3.3,3.58,3.58,0,1,1,2.8,6.6,45.87,45.87,0,0,1-16.6,3.8,23.21,23.21,0,0,1-13.3-3.5,19.6,19.6,0,0,1-8.4-10.3c-3.4-10.1-3.5-20.1,5.1-29.4a21.35,21.35,0,0,1,15.8-6.6Zm10.8,11.7a15.21,15.21,0,0,0-21.6,0,18.44,18.44,0,0,0-4.7,7.7h31.1A21,21,0,0,0,276.29,440.7Z"/><path class="cls-1" d="M320.09,429a21.9,21.9,0,0,1,15.8,6.6,24.26,24.26,0,0,1,6,10.4c3.1,10.1-2.8,9.7-4.6,9.7h-33.1a31.89,31.89,0,0,0,1.6,6.6,15.23,15.23,0,0,0,5.6,7,17.27,17.27,0,0,0,9.4,2.4,36.58,36.58,0,0,0,13.9-3.3,3.58,3.58,0,0,1,2.8,6.6,45.87,45.87,0,0,1-16.6,3.8,23.21,23.21,0,0,1-13.3-3.5,19.6,19.6,0,0,1-8.4-10.3c-3.4-10.1-3.5-20.1,5.1-29.4a21.35,21.35,0,0,1,15.8-6.6Zm10.8,11.7a15.21,15.21,0,0,0-21.6,0,18.44,18.44,0,0,0-4.7,7.7h31.1A21,21,0,0,0,330.89,440.7Z"/><path class="cls-1" d="M26.89,103.9h75.3c2.3-25.5,9.4-48.4,19.6-66.1C135.29,14.4,154.49,0,176.19,0s40.8,14.5,54.4,37.8c10.2,17.6,17.3,40.6,19.6,66.1h75.2c8.9,0,16.9,7.3,16.2,16.2l-15.1,210.7c-1.9,26.4-18.5,41.5-42.6,41.5H68.49c-26.8,0-41-18.7-42.6-41.5L10.69,120.2c-.6-8.9,7.3-16.3,16.2-16.3Zm94.1,0h110.2c-2.2-22.1-8.3-41.7-17-56.7-10-17.5-23.6-28.4-38-28.4s-28,10.9-38.2,28.5C129.29,62.2,123.29,81.9,121,103.9Z"/><path class="cls-2" d="M121.49,298.4a7.63,7.63,0,1,1,8.6-12.6c2.2,1.5,4.5,3,7,4.5,17.6,10.7,33.8,16,47.3,16,12.2,0,22.1-4.6,28.4-13.9h0c.4-.7.8-1.1.9-1.4a37.61,37.61,0,0,0,4-9,27,27,0,0,0-1-18.4c-2.7-6.1-7.9-12-16-16.9h0a77.73,77.73,0,0,0-20.2-8.4c-20.6-5.8-35.8-14-44-25-9-12.1-9.7-26.7-.1-44.4,6.4-11.7,19.5-19,36.1-20.3,14.3-1.1,31.5,2.3,49,11.2a7.65,7.65,0,0,1-7,13.6c-14.9-7.6-29.1-10.5-40.9-9.6-11.3.9-19.9,5.3-23.7,12.3-6.4,11.7-6.3,20.9-1.1,27.9,6,8.1,18.5,14.4,35.9,19.3a99,99,0,0,1,24,10.1h0c10.9,6.6,18.2,14.9,22.1,23.9a42.36,42.36,0,0,1,1.8,28.7,49.81,49.81,0,0,1-5.7,12.8c-.6.9-1,1.6-1.3,2.1h0c-9.3,13.7-23.6,20.5-41,20.6-16.3,0-35.3-6-55.3-18.2A89.17,89.17,0,0,1,121.49,298.4Z"/></g></g></svg>