<svg xmlns="http://www.w3.org/2000/svg" viewBox="0 0 135.14 72.36"><defs><style>.cls-1{opacity:0.31;}.cls-2{fill:#1e1d1d;}.cls-3{opacity:0.18;}.cls-4{font-size:51.2px;fill:#846969;font-family:HanziPenTC-W5-B5pc-H, HanziPen TC;}</style></defs><title>資產 2</title><g id="圖層_2" data-name="圖層 2"><g id="Capa_1" data-name="Capa 1"><g class="cls-1"><path d="M65.17,22.85l0-.08a8.07,8.07,0,0,0-15.76-3.3v0a2.71,2.71,0,0,1-1.81,1.93,8,8,0,0,0-5.45,6.1A8.21,8.21,0,0,0,48,36.83a8.66,8.66,0,0,0,3.17.32,6.59,6.59,0,0,1,4.15,1,8.38,8.38,0,0,0,2.95,1.2,8.19,8.19,0,0,0,9.48-5.49,8,8,0,0,0-1.6-7.57A4.22,4.22,0,0,1,65.17,22.85Z"/><ellipse cx="43.81" cy="12.62" rx="3.88" ry="3.97" transform="translate(20.98 52.08) rotate(-76)"/><ellipse cx="54.09" cy="4.72" rx="4.71" ry="4.82" transform="translate(36.43 56.06) rotate(-76)"/><ellipse cx="73.24" cy="19.95" rx="3.88" ry="3.97" transform="translate(36.17 86.19) rotate(-76)"/><ellipse cx="67.87" cy="8.15" rx="4.71" ry="4.82" transform="translate(43.55 72.03) rotate(-76)"/><path class="cls-2" d="M44.94,28.21a8,8,0,0,1,5.45-6.1,2.75,2.75,0,0,0,1.81-1.93v0a7.92,7.92,0,0,1,8.31-5.9,8.89,8.89,0,0,0-1-.38,8,8,0,0,0-10.06,5.59v0a2.71,2.71,0,0,1-1.81,1.93,8,8,0,0,0-5.45,6.1A8.21,8.21,0,0,0,48,36.83a9.52,9.52,0,0,0,1.79.33A8.18,8.18,0,0,1,44.94,28.21Z"/><path class="cls-2" d="M58.05,38.88a6.53,6.53,0,0,0-3.42-1.06,6.6,6.6,0,0,1,.64.36,8.2,8.2,0,0,0,2.95,1.2,9.3,9.3,0,0,0,1,.15A9.3,9.3,0,0,1,58.05,38.88Z"/><path class="cls-2" d="M42.73,12.35a3.88,3.88,0,0,1,3.35-2.9,4,4,0,0,0-1.33-.6,3.88,3.88,0,1,0-1.87,7.53,4.22,4.22,0,0,0,1.45.1A3.89,3.89,0,0,1,42.73,12.35Z"/><path class="cls-2" d="M52.18,4.24A4.73,4.73,0,0,1,56.57.7,5.11,5.11,0,0,0,55.23.15a4.77,4.77,0,0,0-5.82,3.4,4.84,4.84,0,0,0,5,5.87A4.73,4.73,0,0,1,52.18,4.24Z"/><path class="cls-2" d="M72.15,19.68a3.9,3.9,0,0,1,3.35-2.9,4,4,0,0,0-1.32-.59,3.88,3.88,0,1,0-1.88,7.53,4.21,4.21,0,0,0,1.45.09A3.89,3.89,0,0,1,72.15,19.68Z"/><path class="cls-2" d="M66,7.67a4.72,4.72,0,0,1,4.38-3.54A4.91,4.91,0,0,0,69,3.58,4.77,4.77,0,0,0,63.19,7a4.77,4.77,0,0,0,3.54,5.74,5.07,5.07,0,0,0,1.44.14A4.74,4.74,0,0,1,66,7.67Z"/></g><g class="cls-3"><path d="M29,49.23l0-.08a8.46,8.46,0,0,0-15.9,5.76v0a3,3,0,0,1-.52,2.83,9,9,0,0,0-1.4,8.82,8.82,8.82,0,0,0,10.42,5.5,8.67,8.67,0,0,0,3-1.47,6.55,6.55,0,0,1,4.28-1.37,8.45,8.45,0,0,0,3.3-.52,8.81,8.81,0,0,0,5.33-10.51A9,9,0,0,0,31.76,52,4.66,4.66,0,0,1,29,49.23Z"/><ellipse cx="4.18" cy="51.61" rx="4.17" ry="4.27" transform="translate(-15.44 3.69) rotate(-17.63)"/><ellipse cx="8.86" cy="38.39" rx="5.06" ry="5.19" transform="translate(-11.21 4.49) rotate(-17.63)"/><ellipse cx="34.51" cy="41.97" rx="4.17" ry="4.27" transform="translate(-11.09 12.43) rotate(-17.63)"/><ellipse cx="23.06" cy="33.87" rx="5.06" ry="5.19" transform="translate(-9.18 8.58) rotate(-17.63)"/><path class="cls-2" d="M14,65.67a8.94,8.94,0,0,1,1.4-8.82A3,3,0,0,0,15.92,54v0A8.61,8.61,0,0,1,20,43.77a7.26,7.26,0,0,0-1.11.22,8.55,8.55,0,0,0-5.8,10.92v0a3,3,0,0,1-.52,2.83,9,9,0,0,0-1.4,8.82,8.82,8.82,0,0,0,10.42,5.5,8.14,8.14,0,0,0,1.78-.7A8.85,8.85,0,0,1,14,65.67Z"/><path class="cls-2" d="M31.7,68.34a6.53,6.53,0,0,0-3.64.92,6.77,6.77,0,0,1,.78,0,8.45,8.45,0,0,0,3.3-.52,8.22,8.22,0,0,0,1-.45A9.92,9.92,0,0,1,31.7,68.34Z"/><path class="cls-2" d="M3.06,52A4.28,4.28,0,0,1,4.4,47.35a4.13,4.13,0,0,0-1.51.19A4.2,4.2,0,0,0,.21,52.87a4.22,4.22,0,0,0,5.27,2.81A4.22,4.22,0,0,0,6.82,55,4.29,4.29,0,0,1,3.06,52Z"/><path class="cls-2" d="M6.89,39a5.18,5.18,0,0,1,1.9-5.8,4.85,4.85,0,0,0-1.5.24,5.18,5.18,0,0,0,3.14,9.88,5.22,5.22,0,0,0,1.36-.67A5.19,5.19,0,0,1,6.89,39Z"/><path class="cls-2" d="M33.39,42.32a4.28,4.28,0,0,1,1.34-4.61,4.13,4.13,0,0,0-1.51.19,4.27,4.27,0,1,0,3.93,7.42A4.28,4.28,0,0,1,33.39,42.32Z"/><path class="cls-2" d="M21.09,34.5A5.18,5.18,0,0,1,23,28.7a4.88,4.88,0,0,0-1.5.23,5.19,5.19,0,0,0,3.14,9.89A5,5,0,0,0,26,38.14,5.19,5.19,0,0,1,21.09,34.5Z"/></g><text class="cls-4" transform="translate(21.99 58.03)">News</text></g></g></svg>