<svg xmlns="http://www.w3.org/2000/svg" viewBox="0 0 181.02 72.33"><defs><style>.cls-1{opacity:0.31;}.cls-2{fill:#1e1d1d;}.cls-3{opacity:0.18;}.cls-4{isolation:isolate;font-size:51.2px;fill:#846969;font-family:HanziPenTC-W5-B5pc-H, HanziPen TC;}</style></defs><title>資產 3</title><g id="圖層_2" data-name="圖層 2"><g id="圖層_1-2" data-name="圖層 1"><g id="Capa_1" data-name="Capa 1"><g class="cls-1"><path d="M65.18,22.86v-.08a8.07,8.07,0,0,0-15.76-3.3h0a2.73,2.73,0,0,1-1.81,1.93,8,8,0,0,0-5.45,6.1A8.21,8.21,0,0,0,48,36.84a8.7,8.7,0,0,0,3.17.32,6.52,6.52,0,0,1,4.15,1,8.54,8.54,0,0,0,3,1.2,8.2,8.2,0,0,0,9.48-5.49,8,8,0,0,0-1.6-7.57A4.23,4.23,0,0,1,65.18,22.86Z"/><ellipse cx="43.83" cy="12.63" rx="3.88" ry="3.97" transform="translate(20.97 52.11) rotate(-76)"/><ellipse cx="54.1" cy="4.73" rx="4.71" ry="4.82" transform="translate(36.43 56.08) rotate(-76)"/><ellipse cx="73.26" cy="19.96" rx="3.88" ry="3.97" transform="translate(36.17 86.21) rotate(-76)"/><ellipse cx="67.89" cy="8.15" rx="4.71" ry="4.82" transform="translate(43.55 72.05) rotate(-76)"/><path class="cls-2" d="M45,28.22a8,8,0,0,1,5.45-6.1,2.77,2.77,0,0,0,1.81-1.93h0a7.91,7.91,0,0,1,8.31-5.9,7.59,7.59,0,0,0-1-.38,8,8,0,0,0-10,5.32,2.76,2.76,0,0,0-.08.27h0a2.73,2.73,0,0,1-1.81,1.93,8,8,0,0,0-5.45,6.1A8.21,8.21,0,0,0,48,36.84a10.66,10.66,0,0,0,1.79.33A8.2,8.2,0,0,1,45,28.22Z"/><path class="cls-2" d="M58.06,38.89a6.41,6.41,0,0,0-3.42-1.06,4.53,4.53,0,0,1,.64.36,8.35,8.35,0,0,0,2.95,1.2c.33.06.66.11,1,.15A9.47,9.47,0,0,1,58.06,38.89Z"/><path class="cls-2" d="M42.74,12.36a3.87,3.87,0,0,1,3.35-2.9,3.81,3.81,0,0,0-1.33-.6,3.88,3.88,0,1,0-2,7.49l.14,0a4.4,4.4,0,0,0,1.45.1A3.89,3.89,0,0,1,42.74,12.36Z"/><path class="cls-2" d="M52.19,4.25A4.73,4.73,0,0,1,56.58.71,5,5,0,0,0,55.24.16a4.76,4.76,0,0,0-5.82,3.4,4.86,4.86,0,0,0,5,5.87A4.74,4.74,0,0,1,52.19,4.25Z"/><path class="cls-2" d="M72.16,19.69a3.89,3.89,0,0,1,3.35-2.9,3.83,3.83,0,0,0-1.32-.59,3.88,3.88,0,1,0-1.88,7.53,4.4,4.4,0,0,0,1.45.09A3.89,3.89,0,0,1,72.16,19.69Z"/><path class="cls-2" d="M66,7.68a4.71,4.71,0,0,1,4.38-3.54A4.69,4.69,0,0,0,69,3.59,4.77,4.77,0,0,0,63.2,7a4.77,4.77,0,0,0,3.54,5.74,5.38,5.38,0,0,0,1.44.14A4.75,4.75,0,0,1,66,7.68Z"/></g><g class="cls-3"><path d="M29,49.24v-.08a8.46,8.46,0,0,0-15.9,5.76h0a3,3,0,0,1-.52,2.83,9,9,0,0,0-1.4,8.82,8.83,8.83,0,0,0,10.42,5.5,8.66,8.66,0,0,0,3-1.47,6.5,6.5,0,0,1,4.28-1.37,8.62,8.62,0,0,0,3.3-.52A8.82,8.82,0,0,0,37.52,58.2,9,9,0,0,0,31.77,52,4.69,4.69,0,0,1,29,49.24Z"/><ellipse cx="4.18" cy="51.62" rx="4.17" ry="4.27" transform="translate(-15.44 3.69) rotate(-17.63)"/><ellipse cx="8.87" cy="38.4" rx="5.06" ry="5.19" transform="translate(-11.21 4.49) rotate(-17.63)"/><ellipse cx="34.52" cy="41.98" rx="4.17" ry="4.27" transform="translate(-11.09 12.43) rotate(-17.63)"/><ellipse cx="23.06" cy="33.88" rx="5.06" ry="5.19" transform="translate(-9.18 8.58) rotate(-17.63)"/><path class="cls-2" d="M14,65.68a8.93,8.93,0,0,1,1.4-8.82A3,3,0,0,0,15.93,54h0A8.61,8.61,0,0,1,20,43.78,5.9,5.9,0,0,0,18.9,44,8.54,8.54,0,0,0,13,54.54c0,.13.07.25.11.38h0a3,3,0,0,1-.52,2.83,9,9,0,0,0-1.4,8.82,8.83,8.83,0,0,0,10.42,5.5,8.56,8.56,0,0,0,1.78-.7A8.86,8.86,0,0,1,14,65.68Z"/><path class="cls-2" d="M31.71,68.35a6.47,6.47,0,0,0-3.64.92,5.08,5.08,0,0,1,.78,0,8.62,8.62,0,0,0,3.3-.52,9,9,0,0,0,1-.45A11.55,11.55,0,0,1,31.71,68.35Z"/><path class="cls-2" d="M3.07,52a4.28,4.28,0,0,1,1.34-4.65,4.08,4.08,0,0,0-1.51.19A4.19,4.19,0,0,0,.21,52.84v0a4.21,4.21,0,0,0,5.26,2.81h0A4.46,4.46,0,0,0,6.83,55,4.3,4.3,0,0,1,3.07,52Z"/><path class="cls-2" d="M6.9,39a5.18,5.18,0,0,1,1.9-5.8,4.76,4.76,0,0,0-1.5.24,5.18,5.18,0,0,0,3.14,9.88h0a5.74,5.74,0,0,0,1.36-.67A5.2,5.2,0,0,1,6.9,39Z"/><path class="cls-2" d="M33.4,42.33a4.27,4.27,0,0,1,1.34-4.61,4.08,4.08,0,0,0-1.51.19,4.27,4.27,0,0,0,2.55,8.15,4.46,4.46,0,0,0,1.38-.73A4.3,4.3,0,0,1,33.4,42.33Z"/><path class="cls-2" d="M21.1,34.51A5.18,5.18,0,0,1,23,28.71a4.48,4.48,0,0,0-1.5.23,5.19,5.19,0,0,0,3.14,9.89A5.41,5.41,0,0,0,26,38.15,5.19,5.19,0,0,1,21.1,34.51Z"/></g><text class="cls-4" transform="translate(22 58.04)">Contact</text></g></g></g></svg>